#!OML:ASF X:\für Bonn\!DataBase\2005_08_10_Bjorn_Final\c3d\bjorn.ASF
:FULLY-SPECIFIED
:DEGREES
49
root 0.952374 15.0226 3.78011 -177.046 -0.0798563 -179.463
lowerback 16.3342 1.62266 4.16076
upperback 8.70455 1.24352 -1.66012
thorax 0.298996 0.199047 -4.29522
lowerneck -21.3299 -4.64392 0.449329
upperneck 7.84059 -6.94368 3.46855
head 5.90063 -3.1355 0.272382
rclavicle -2.15681e-014 9.93923e-015
rhumerus 77.5929 -2.34025 -70.6519
rradius 14.5118
rwrist 36.06
rhand -13.5167 12.8529
rfingers 7.12502
rthumb 12.5951 -16.7474
lclavicle -2.15681e-014 9.93923e-015
lhumerus 81.4322 -11.9216 52.6461
lradius 15.2879
lwrist -23.9135
lhand -31.8444 -13.4053
lfingers 7.12502
lthumb -5.0985 16.5134
rfemur -51.2742 -5.76901 17.066
rtibia 93.6195
rfoot -36.9432 9.19147
rtoes -25.0233
lfemur -53.5216 8.54409 -19.0726
ltibia 97.3801
lfoot -26.9674 -9.09111
ltoes -27.1969
50
root 0.960286 14.7899 3.80069 -177.204 -0.116901 -179.493
lowerback 16.7289 1.60804 4.06061
upperback 8.89362 1.15427 -1.69294
thorax 0.28529 0.12761 -4.26649
lowerneck -21.432 -4.59643 0.381094
upperneck 7.46597 -6.89083 3.62972
head 5.80394 -3.11571 0.342436
rclavicle 1.93815e-014 -5.76476e-015
rhumerus 77.7909 -2.44734 -69.9347
rradius 14.811
rwrist 35.4941
rhand -13.4882 12.8202
rfingers 7.12502
rthumb 12.6225 -16.7784
lclavicle 1.93815e-014 -5.76476e-015
lhumerus 81.6564 -11.7581 52.2423
lradius 15.3113
lwrist -23.6584
lhand -32.0542 -13.346
lfingers 7.12502
lthumb -5.30107 16.5677
rfemur -52.8294 -6.10277 16.8143
rtibia 96.276
rfoot -36.5421 10.0287
rtoes -26.0314
lfemur -54.8382 8.73917 -19.0032
ltibia 99.7013
lfoot -27.4755 -8.96821
ltoes -29.2526
51
root 0.969333 14.5544 3.81996 -177.373 -0.201056 -179.558
lowerback 17.1313 1.59123 3.93275
upperback 9.0817 1.05617 -1.7339
thorax 0.265931 0.0502443 -4.22868
lowerneck -21.5352 -4.57159 0.2839
upperneck 7.11456 -6.86379 3.81175
head 5.71707 -3.10732 0.42023
rclavicle -1.88845e-015 7.55382e-015
rhumerus 77.9639 -2.58031 -69.1104
rradius 15.0935
rwrist 34.792
rhand -13.5199 12.8454
rfingers 7.12502
rthumb 12.592 -16.7551
lclavicle -1.88845e-015 7.55382e-015
lhumerus 81.8987 -11.6036 51.815
lradius 15.3198
lwrist -23.5089
lhand -32.2581 -13.2597
lfingers 7.12502
lthumb -5.4979 16.649
rfemur -54.3959 -6.55698 16.5226
rtibia 98.9084
rfoot -36.1024 10.8061
rtoes -27.2328
lfemur -56.1366 8.904 -18.95
ltibia 101.995
lfoot -27.9847 -8.94012
ltoes -31.0874
52
root 0.978758 14.3172 3.83825 -177.55 -0.27572 -179.623
lowerback 17.5705 1.58744 3.78131
upperback 9.27323 0.967995 -1.74956
thorax 0.232015 -0.0257817 -4.152
lowerneck -21.7019 -4.544 0.174533
upperneck 6.76529 -6.82722 3.95394
head 5.6391 -3.09797 0.486917
rclavicle -1.0635e-014 9.93923e-015
rhumerus 78.1177 -2.70162 -67.9632
rradius 15.4009
rwrist 33.8098
rhand -13.6132 12.7774
rfingers 7.12502
rthumb 12.502 -16.8286
lclavicle -1.0635e-014 9.93923e-015
lhumerus 82.1972 -11.4172 51.4657
lradius 15.2424
lwrist -23.5298
lhand -32.454 -13.0585
lfingers 7.12502
lthumb -5.68704 16.8451
rfemur -55.9426 -7.09945 16.2228
rtibia 101.487
rfoot -35.7142 11.5483
rtoes -28.6875
lfemur -57.4111 9.096 -18.8666
ltibia 104.251
lfoot -28.4179 -9.22526
ltoes -32.1498
53
root 0.987317 14.0788 3.85462 -177.746 -0.360203 -179.687
lowerback 18.0614 1.57235 3.6532
upperback 9.44615 0.868597 -1.77806
thorax 0.15329 -0.107694 -4.10023
lowerneck -21.9367 -4.51765 0.068694
upperneck 6.50238 -6.79881 4.11072
head 5.59983 -3.08804 0.55426
rclavicle -1.63997e-014 1.31198e-014
rhumerus 78.2354 -2.80658 -66.7024
rradius 15.6568
rwrist 32.6609
rhand -13.8126 12.7474
rfingers 7.12502
rthumb 12.3098 -16.8702
lclavicle -1.63997e-014 1.31198e-014
lhumerus 82.5931 -11.2194 50.7929
lradius 15.1047
lwrist -23.2137
lhand -32.5955 -12.9205
lfingers 7.12502
lthumb -5.82367 16.9795
rfemur -57.4735 -7.77542 15.9183
rtibia 104.053
rfoot -35.5266 12.2074
rtoes -30.4527
lfemur -58.6448 9.30021 -18.7727
ltibia 106.486
lfoot -28.8261 -9.70669
ltoes -32.7513
54
root 0.99622 13.8412 3.87089 -177.932 -0.416449 -179.752
lowerback 18.5837 1.57126 3.50937
upperback 9.59541 0.786942 -1.81003
thorax 0.0358132 -0.181587 -4.04558
lowerneck -22.1847 -4.47548 0.0199937
upperneck 6.24909 -6.75997 4.21726
head 5.56129 -3.07548 0.597663
rclavicle -7.15625e-015 -9.93923e-016
rhumerus 78.3043 -2.92254 -65.385
rradius 15.917
rwrist 31.3594
rhand -14.0178 12.7235
rfingers 7.12502
rthumb 12.1119 -16.9059
lclavicle -7.15625e-015 -9.93923e-016
lhumerus 82.9938 -11.0071 50.1011
lradius 14.9525
lwrist -22.9097
lhand -32.6318 -12.765
lfingers 7.12502
lthumb -5.85872 17.134
rfemur -59.0144 -8.51547 15.6179
rtibia 106.588
rfoot -35.508 12.7799
rtoes -32.2107
lfemur -59.8737 9.5752 -18.6753
ltibia 108.677
lfoot -29.0912 -10.5512
ltoes -32.4297
55
root 1.00363 13.6036 3.886 -178.127 -0.453309 -179.815
lowerback 19.1211 1.57502 3.37115
upperback 9.74164 0.709835 -1.83146
thorax -0.0903623 -0.254163 -3.98287
lowerneck -22.4953 -4.43253 -0.0268727
upperneck 6.05132 -6.71604 4.26949
head 5.54732 -3.06211 0.622384
rclavicle 1.23246e-014 -1.19271e-015
rhumerus 78.3763 -3.03609 -64.1896
rradius 16.1658
rwrist 30.1727
rhand -14.1483 12.6933
rfingers 7.12502
rthumb 11.9861 -16.9436
lclavicle 1.23246e-014 -1.19271e-015
lhumerus 83.3308 -10.7827 49.695
lradius 14.8069
lwrist -22.8238
lhand -32.6048 -12.7503
lfingers 7.12502
lthumb -5.83264 17.1495
rfemur -60.5026 -9.32876 15.2915
rtibia 109.074
rfoot -35.5223 13.5943
rtoes -33.4398
lfemur -61.0748 9.92175 -18.5928
ltibia 110.84
lfoot -29.2885 -11.515
ltoes -31.675
56
root 1.0103 13.364 3.90184 -178.341 -0.480341 -179.897
lowerback 19.7136 1.58572 3.23757
upperback 9.86279 0.643281 -1.87508
thorax -0.268183 -0.321553 -3.94801
lowerneck -22.8264 -4.39157 -0.0338541
upperneck 5.87377 -6.6865 4.309
head 5.54113 -3.05537 0.634716
rclavicle -3.97569e-015 3.00165e-014
rhumerus 78.4091 -3.18611 -63.2383
rradius 16.4056
rwrist 29.1744
rhand -14.194 12.7106
rfingers 7.12502
rthumb 11.942 -16.9288
lclavicle -3.97569e-015 3.00165e-014
lhumerus 83.6002 -10.606 49.368
lradius 14.7075
lwrist -22.7931
lhand -32.495 -12.6972
lfingers 7.12502
lthumb -5.72663 17.2055
rfemur -61.9121 -10.2428 14.9226
rtibia 111.483
rfoot -35.5746 14.6549
rtoes -34.18
lfemur -62.2662 10.322 -18.5423
ltibia 112.986
lfoot -29.4043 -12.5579
ltoes -30.6308
57
root 1.01689 13.1224 3.91546 -178.554 -0.49836 -179.978
lowerback 20.288 1.60194 3.1006
upperback 9.98484 0.580316 -1.91791
thorax -0.433657 -0.387165 -3.91
lowerneck -23.1594 -4.3499 -0.0322831
upperneck 5.71322 -6.65971 4.34949
head 5.54026 -3.04934 0.645572
rclavicle -1.35174e-014 1.59028e-015
rhumerus 78.427 -3.35366 -62.3295
rradius 16.65
rwrist 28.2554
rhand -14.1518 12.7245
rfingers 7.12502
rthumb 11.9827 -16.9125
lclavicle -1.35174e-014 1.59028e-015
lhumerus 83.8449 -10.4211 48.9907
lradius 14.6667
lwrist -22.6432
lhand -32.2935 -12.6569
lfingers 7.12502
lthumb -5.53212 17.2509
rfemur -63.2709 -11.2624 14.5647
rtibia 113.805
rfoot -35.6442 15.8347
rtoes -34.6023
lfemur -63.4529 10.7993 -18.5193
ltibia 115.124
lfoot -29.5799 -13.4035
ltoes -29.9091
58
root 1.02379 12.8784 3.92878 -178.778 -0.525828 -180.041
lowerback 20.8786 1.6122 2.98152
upperback 10.0897 0.514557 -1.94592
thorax -0.62388 -0.453409 -3.86492
lowerneck -23.4354 -4.30023 -0.0429564
upperneck 5.52213 -6.61307 4.35917
head 5.51938 -3.03804 0.652354
rclavicle -4.17448e-015 -2.18663e-015
rhumerus 78.4341 -3.53027 -61.6603
rradius 16.8607
rwrist 27.6194
rhand -14.022 12.8574
rfingers 7.12502
rthumb 12.1078 -16.7723
lclavicle -4.17448e-015 -2.18663e-015
lhumerus 84.0649 -10.2163 48.6155
lradius 14.6506
lwrist -22.4977
lhand -32.0376 -12.6456
lfingers 7.12502
lthumb -5.28506 17.2684
rfemur -64.5682 -12.3887 14.2511
rtibia 116.036
rfoot -35.6924 17.1187
rtoes -34.603
lfemur -64.6363 11.3411 -18.4739
ltibia 117.256
lfoot -29.7165 -14.2954
ltoes -29.1913
59
root 1.02919 12.6331 3.94052 -179.019 -0.534424 -180.121
lowerback 21.4677 1.63174 2.83267
upperback 10.1873 0.454533 -1.96193
thorax -0.820059 -0.518017 -3.7901
lowerneck -23.6588 -4.24667 -0.0475532
upperneck 5.3424 -6.55702 4.3415
head 5.49261 -3.02355 0.651534
rclavicle -1.49089e-014 2.46493e-014
rhumerus 78.4246 -3.70169 -61.0448
rradius 17.0869
rwrist 27.1582
rhand -13.8184 12.9966
rfingers 7.12502
rthumb 12.3042 -16.6214
lclavicle -1.49089e-014 2.46493e-014
lhumerus 84.2029 -9.99367 48.4345
lradius 14.6682
lwrist -22.5372
lhand -31.7116 -12.6627
lfingers 7.12502
lthumb -4.97024 17.259
rfemur -65.8309 -13.6584 13.9497
rtibia 118.223
rfoot -35.789 18.2802
rtoes -34.5348
lfemur -65.7969 11.9684 -18.4611
ltibia 119.364
lfoot -29.8628 -15.1046
ltoes -28.551
60
root 1.03577 12.3867 3.95155 -179.241 -0.544228 -180.202
lowerback 22.007 1.65815 2.7057
upperback 10.2846 0.406318 -1.9984
thorax -0.987866 -0.573824 -3.75114
lowerneck -23.7902 -4.19834 -0.0354593
upperneck 5.07074 -6.51578 4.355
head 5.42365 -3.0188 0.659005
rclavicle -1.45113e-014 -1.03368e-014
rhumerus 78.4046 -3.92401 -60.6018
rradius 17.3002
rwrist 26.8827
rhand -13.6189 13.1094
rfingers 7.12502
rthumb 12.4965 -16.497
lclavicle -1.45113e-014 -1.03368e-014
lhumerus 84.3375 -9.7926 48.2982
lradius 14.7223
lwrist -22.7386
lhand -31.3587 -12.5952
lfingers 7.12502
lthumb -4.6295 17.3342
rfemur -67.1177 -15.0871 13.6848
rtibia 120.373
rfoot -35.9091 19.4323
rtoes -34.4195
lfemur -66.9798 12.7022 -18.4422
ltibia 121.459
lfoot -29.9684 -15.9822
ltoes -27.8325
61
root 1.04071 12.14 3.96219 -179.494 -0.564236 -180.247
lowerback 22.5534 1.67135 2.62593
upperback 10.3785 0.349067 -2.02311
thorax -1.16052 -0.632897 -3.72387
lowerneck -23.876 -4.13761 0.00729191
upperneck 4.80935 -6.46013 4.32894
head 5.34845 -3.00887 0.651552
rclavicle -3.18055e-015 7.95139e-016
rhumerus 78.4025 -4.14643 -60.425
rradius 17.4674
rwrist 26.9395
rhand -13.4307 13.3264
rfingers 7.12502
rthumb 12.678 -16.2688
lclavicle -3.18055e-015 7.95139e-016
lhumerus 84.5962 -9.55609 47.6712
lradius 14.6118
lwrist -22.5447
lhand -31.1462 -12.5741
lfingers 7.12502
lthumb -4.42436 17.3597
rfemur -68.3431 -16.6598 13.4598
rtibia 122.479
rfoot -36.1119 20.4692
rtoes -34.4846
lfemur -68.1312 13.552 -18.3681
ltibia 123.537
lfoot -30.111 -16.8369
ltoes -27.3771
62
root 1.04611 11.8897 3.97081 -179.746 -0.574331 -180.309
lowerback 23.0174 1.70444 2.50566
upperback 10.4881 0.308479 -2.02008
thorax -1.27416 -0.684358 -3.64621
lowerneck -23.9013 -4.08545 0.0304476
upperneck 4.50836 -6.40255 4.25901
head 5.2504 -3.00355 0.634989
rclavicle 1.55052e-014 1.31198e-014
rhumerus 78.4187 -4.36212 -60.2038
rradius 17.632
rwrist 26.9986
rhand -13.3375 13.4768
rfingers 7.12502
rthumb 12.7679 -16.1128
lclavicle 1.55052e-014 1.31198e-014
lhumerus 84.9008 -9.29217 46.9082
lradius 14.4378
lwrist -22.1925
lhand -30.9569 -12.5326
lfingers 7.12502
lthumb -4.24155 17.4049
rfemur -69.5803 -18.4165 13.2112
rtibia 124.561
rfoot -36.4433 21.4581
rtoes -34.8008
lfemur -69.2982 14.5831 -18.2891
ltibia 125.603
lfoot -30.2024 -17.8721
ltoes -26.7822
